<svg width="1440" height="900" viewBox="0 0 1440 900" fill="none" xmlns="http://www.w3.org/2000/svg">
<rect width="1440" height="900" fill="url(#paint0_radial_40_19)" fill-opacity="0.01"/>
<path d="M408.633 211.826C408.842 211.377 408.401 210.943 407.953 211.145C407.856 211.19 407.782 211.264 407.737 211.362C407.535 211.811 407.968 212.245 408.416 212.043C408.513 211.998 408.588 211.923 408.633 211.826Z" fill="white" fill-opacity="0.1"/>
<path d="M473.582 200.3C473.791 199.852 473.35 199.411 472.903 199.62C472.806 199.665 472.731 199.74 472.686 199.837C472.485 200.285 472.917 200.718 473.365 200.516C473.462 200.471 473.537 200.397 473.582 200.3Z" fill="white" fill-opacity="0.1"/>
<path opacity="0.6" d="M1230.95 107.732C1231.15 107.283 1230.72 106.849 1230.27 107.051C1230.17 107.096 1230.1 107.171 1230.05 107.268C1229.85 107.717 1230.28 108.151 1230.73 107.949C1230.83 107.904 1230.9 107.829 1230.95 107.732Z" fill="white" fill-opacity="0.8"/>
<path d="M1211.08 239.6C1211.29 239.151 1210.85 238.717 1210.4 238.919C1210.3 238.964 1210.23 239.038 1210.18 239.136C1209.98 239.585 1210.41 240.019 1210.86 239.817C1210.96 239.772 1211.03 239.697 1211.08 239.6Z" fill="white" fill-opacity="0.1"/>
<path d="M1167.74 116.962C1167.94 116.513 1167.51 116.079 1167.06 116.281C1166.96 116.326 1166.89 116.401 1166.84 116.498C1166.63 116.947 1167.07 117.382 1167.52 117.179C1167.62 117.135 1167.69 117.06 1167.74 116.962Z" fill="white" fill-opacity="0.1"/>
<path d="M1242.95 146.732C1243.15 146.283 1242.72 145.849 1242.27 146.051C1242.17 146.096 1242.1 146.171 1242.05 146.268C1241.85 146.717 1242.28 147.151 1242.73 146.949C1242.83 146.904 1242.9 146.829 1242.95 146.732Z" fill="white" fill-opacity="0.1"/>
<path d="M1160.95 170.732C1161.16 170.283 1160.72 169.849 1160.27 170.051C1160.17 170.096 1160.1 170.171 1160.05 170.268C1159.85 170.717 1160.28 171.151 1160.73 170.949C1160.83 170.904 1160.9 170.829 1160.95 170.732Z" fill="white" fill-opacity="0.1"/>
<path d="M1162.95 277.732C1163.16 277.283 1162.72 276.849 1162.27 277.051C1162.17 277.096 1162.1 277.171 1162.05 277.268C1161.85 277.717 1162.28 278.151 1162.73 277.949C1162.83 277.904 1162.9 277.829 1162.95 277.732Z" fill="white" fill-opacity="0.1"/>
<path d="M1047.87 23.732C1048.08 23.283 1047.64 22.8489 1047.19 23.051C1047.1 23.0959 1047.02 23.1707 1046.98 23.268C1046.77 23.717 1047.21 24.1511 1047.66 23.949C1047.75 23.9041 1047.83 23.8293 1047.87 23.732Z" fill="white" fill-opacity="0.8"/>
<path d="M351.946 155.732C352.155 155.283 351.715 154.849 351.267 155.051C351.17 155.096 351.096 155.171 351.051 155.268C350.849 155.717 351.282 156.151 351.73 155.949C351.827 155.904 351.902 155.829 351.946 155.732Z" fill="white" fill-opacity="0.1"/>
<path opacity="0.6" d="M474.949 118.732C475.151 118.283 474.718 117.849 474.27 118.051C474.173 118.096 474.098 118.171 474.054 118.268C473.845 118.717 474.285 119.151 474.733 118.949C474.83 118.904 474.904 118.829 474.949 118.732Z" fill="white" fill-opacity="0.8"/>
<path d="M253.949 243.732C254.151 243.283 253.717 242.849 253.268 243.051C253.171 243.096 253.096 243.171 253.051 243.268C252.849 243.717 253.283 244.151 253.732 243.949C253.829 243.904 253.904 243.829 253.949 243.732Z" fill="white" fill-opacity="0.1"/>
<path d="M306.268 247.949C306.717 248.151 307.151 247.718 306.949 247.27C306.904 247.173 306.829 247.098 306.732 247.054C306.283 246.845 305.849 247.285 306.051 247.733C306.096 247.83 306.171 247.904 306.268 247.949Z" fill="white" fill-opacity="0.8"/>
<path d="M466.398 189.522C466.599 189.073 466.167 188.638 465.719 188.841C465.622 188.885 465.547 188.96 465.502 189.058C465.293 189.507 465.734 189.941 466.181 189.739C466.278 189.694 466.353 189.619 466.398 189.522Z" fill="white" fill-opacity="0.1"/>
<path d="M1109.25 208.756C1109.45 208.307 1109.02 207.873 1108.57 208.075C1108.47 208.12 1108.4 208.195 1108.35 208.292C1108.14 208.741 1108.59 209.175 1109.03 208.973C1109.13 208.928 1109.2 208.853 1109.25 208.756Z" fill="white" fill-opacity="0.1"/>
<path d="M1123.97 126.167C1124.17 125.719 1123.74 125.286 1123.29 125.487C1123.2 125.532 1123.12 125.607 1123.08 125.704C1122.87 126.152 1123.31 126.592 1123.76 126.383C1123.85 126.338 1123.93 126.264 1123.97 126.167Z" fill="white" fill-opacity="0.1"/>
<path d="M183.949 109.73C184.151 109.282 183.718 108.849 183.27 109.051C183.173 109.096 183.098 109.17 183.054 109.267C182.845 109.715 183.285 110.155 183.733 109.946C183.83 109.902 183.904 109.827 183.949 109.73Z" fill="white" fill-opacity="0.1"/>
<path d="M1247.73 179.054C1247.28 178.845 1246.85 179.285 1247.05 179.733C1247.1 179.83 1247.17 179.904 1247.27 179.949C1247.72 180.151 1248.15 179.718 1247.95 179.27C1247.9 179.173 1247.83 179.098 1247.73 179.054Z" fill="white" fill-opacity="0.1"/>
<path d="M743.946 120.732C744.155 120.283 743.715 119.849 743.267 120.051C743.17 120.096 743.096 120.171 743.051 120.268C742.849 120.717 743.282 121.151 743.73 120.949C743.827 120.904 743.902 120.829 743.946 120.732Z" fill="white" fill-opacity="0.1"/>
<path d="M652.027 133.063C652.229 132.615 651.796 132.182 651.348 132.384C651.251 132.429 651.176 132.503 651.132 132.6C650.923 133.048 651.363 133.488 651.811 133.28C651.908 133.235 651.983 133.16 652.027 133.063Z" fill="white" fill-opacity="0.1"/>
<path opacity="0.4" d="M231.108 147.883C231.317 147.434 230.877 147 230.429 147.202C230.332 147.247 230.257 147.322 230.212 147.419C230.011 147.868 230.444 148.302 230.892 148.1C230.989 148.055 231.063 147.98 231.108 147.883Z" fill="white" fill-opacity="0.8"/>
<path d="M87.949 158.732C88.1511 158.283 87.717 157.849 87.268 158.051C87.1707 158.096 87.0959 158.171 87.051 158.268C86.8489 158.717 87.283 159.151 87.732 158.949C87.8293 158.904 87.9041 158.829 87.949 158.732Z" fill="white" fill-opacity="0.1"/>
<path d="M235.309 195.896C235.511 195.447 235.077 195.012 234.628 195.215C234.531 195.259 234.456 195.334 234.411 195.432C234.209 195.881 234.643 196.315 235.092 196.113C235.19 196.068 235.264 195.993 235.309 195.896Z" fill="white" fill-opacity="0.1"/>
<path d="M537.59 133.732C537.792 133.283 537.358 132.849 536.909 133.051C536.812 133.096 536.737 133.171 536.692 133.268C536.49 133.717 536.924 134.151 537.373 133.949C537.47 133.904 537.545 133.829 537.59 133.732Z" fill="white" fill-opacity="0.1"/>
<path d="M829.1 64.7862C829.301 64.3372 828.868 63.9031 828.42 64.1052C828.323 64.1501 828.249 64.2249 828.204 64.3222C827.995 64.7712 828.435 65.2053 828.883 65.0032C828.98 64.9583 829.055 64.8835 829.1 64.7862Z" fill="white" fill-opacity="0.1"/>
<path d="M1027.95 53.3599C1028.16 52.9109 1027.72 52.4768 1027.27 52.6789C1027.17 52.7238 1027.1 52.7986 1027.05 52.8959C1026.85 53.345 1027.28 53.779 1027.73 53.577C1027.83 53.5321 1027.9 53.4572 1027.95 53.3599Z" fill="white" fill-opacity="0.1"/>
<path d="M518.581 187.627C518.783 187.178 518.349 186.744 517.9 186.946C517.803 186.991 517.728 187.066 517.683 187.163C517.481 187.612 517.915 188.046 518.364 187.844C518.461 187.799 518.536 187.724 518.581 187.627Z" fill="white" fill-opacity="0.1"/>
<path d="M448.051 268.732C447.849 268.283 448.283 267.849 448.732 268.051C448.829 268.096 448.904 268.171 448.949 268.268C449.151 268.717 448.717 269.151 448.268 268.949C448.171 268.904 448.096 268.829 448.051 268.732Z" fill="white" fill-opacity="0.1"/>
<path d="M290.268 211.054C290.717 210.845 291.151 211.285 290.949 211.733C290.904 211.83 290.829 211.904 290.732 211.949C290.283 212.151 289.849 211.718 290.051 211.27C290.096 211.173 290.171 211.098 290.268 211.054Z" fill="white" fill-opacity="0.1"/>
<path d="M1006.34 132.899C1006.13 132.45 1006.57 132.016 1007.02 132.218C1007.11 132.263 1007.19 132.338 1007.23 132.435C1007.44 132.884 1007 133.318 1006.55 133.116C1006.46 133.071 1006.38 132.996 1006.34 132.899Z" fill="white" fill-opacity="0.8"/>
<path d="M1249.05 227.732C1248.85 227.283 1249.28 226.849 1249.73 227.051C1249.83 227.096 1249.9 227.171 1249.95 227.268C1250.16 227.717 1249.72 228.151 1249.27 227.949C1249.17 227.904 1249.1 227.829 1249.05 227.732Z" fill="white" fill-opacity="0.1"/>
<path d="M1225.49 199.403C1225.28 198.954 1225.72 198.52 1226.16 198.722C1226.26 198.767 1226.34 198.842 1226.38 198.939C1226.58 199.388 1226.15 199.822 1225.7 199.62C1225.61 199.576 1225.53 199.501 1225.49 199.403Z" fill="white" fill-opacity="0.8"/>
<path d="M849.051 101.732C848.849 101.283 849.282 100.849 849.73 101.051C849.827 101.096 849.902 101.171 849.946 101.268C850.155 101.717 849.715 102.151 849.267 101.949C849.17 101.904 849.096 101.829 849.051 101.732Z" fill="white" fill-opacity="0.1"/>
<path d="M825.414 112.21C825.212 111.761 825.646 111.326 826.095 111.529C826.193 111.573 826.267 111.648 826.312 111.746C826.514 112.195 826.08 112.629 825.631 112.427C825.534 112.382 825.459 112.307 825.414 112.21Z" fill="white" fill-opacity="0.1"/>
<path d="M110.051 213.732C109.849 213.283 110.282 212.849 110.73 213.051C110.827 213.096 110.902 213.171 110.946 213.268C111.155 213.717 110.715 214.151 110.267 213.949C110.17 213.904 110.096 213.829 110.051 213.732Z" fill="white" fill-opacity="0.1"/>
<path d="M1268.98 271.688C1268.78 271.239 1269.21 270.805 1269.66 271.007C1269.76 271.052 1269.83 271.127 1269.88 271.224C1270.08 271.673 1269.64 272.107 1269.2 271.905C1269.1 271.86 1269.02 271.785 1268.98 271.688Z" fill="white" fill-opacity="0.1"/>
<path opacity="0.6" d="M1314.07 237.181C1313.62 237.384 1313.19 236.949 1313.39 236.5C1313.44 236.403 1313.51 236.328 1313.61 236.283C1314.06 236.081 1314.49 236.515 1314.29 236.964C1314.24 237.062 1314.17 237.137 1314.07 237.181Z" fill="white" fill-opacity="0.8"/>
<path d="M1289.73 204.946C1289.28 205.155 1288.85 204.715 1289.05 204.267C1289.1 204.17 1289.17 204.096 1289.27 204.051C1289.72 203.849 1290.15 204.282 1289.95 204.73C1289.9 204.827 1289.83 204.902 1289.73 204.946Z" fill="white" fill-opacity="0.1"/>
<path d="M897.88 120.162C897.678 119.713 898.112 119.279 898.561 119.481C898.658 119.526 898.733 119.601 898.778 119.698C898.98 120.147 898.546 120.581 898.097 120.379C898 120.334 897.925 120.259 897.88 120.162Z" fill="white" fill-opacity="0.1"/>
<path d="M593.051 112.732C592.849 112.283 593.283 111.849 593.732 112.051C593.829 112.096 593.904 112.171 593.949 112.268C594.151 112.717 593.717 113.151 593.268 112.949C593.171 112.904 593.096 112.829 593.051 112.732Z" fill="white" fill-opacity="0.1"/>
<path d="M540.399 170.73C540.198 170.281 540.631 169.846 541.079 170.049C541.176 170.093 541.25 170.168 541.295 170.266C541.504 170.715 541.064 171.149 540.616 170.947C540.519 170.902 540.444 170.827 540.399 170.73Z" fill="white" fill-opacity="0.1"/>
<path d="M634.729 171.013C634.527 170.564 634.961 170.13 635.41 170.332C635.507 170.377 635.582 170.452 635.627 170.549C635.829 170.998 635.395 171.432 634.946 171.23C634.848 171.185 634.774 171.111 634.729 171.013Z" fill="white" fill-opacity="0.1"/>
<path d="M356.051 185.732C355.849 185.283 356.282 184.849 356.73 185.051C356.827 185.096 356.902 185.171 356.946 185.268C357.155 185.717 356.715 186.151 356.267 185.949C356.17 185.904 356.096 185.829 356.051 185.732Z" fill="white" fill-opacity="0.1"/>
<path d="M959.054 209.733C958.845 209.285 959.285 208.845 959.733 209.054C959.83 209.098 959.904 209.173 959.949 209.27C960.151 209.718 959.718 210.151 959.27 209.949C959.173 209.904 959.098 209.83 959.054 209.733Z" fill="white" fill-opacity="0.1"/>
<path opacity="0.2" d="M1016.69 159.24C1016.49 158.791 1016.92 158.357 1017.37 158.559C1017.47 158.604 1017.54 158.679 1017.59 158.776C1017.79 159.225 1017.36 159.659 1016.91 159.457C1016.81 159.412 1016.73 159.337 1016.69 159.24Z" fill="white" fill-opacity="0.8"/>
<path d="M906.517 68.338C906.316 67.8889 906.749 67.4549 907.196 67.6569C907.293 67.7018 907.368 67.7767 907.413 67.874C907.622 68.323 907.181 68.757 906.734 68.555C906.637 68.5101 906.562 68.4352 906.517 68.338Z" fill="white" fill-opacity="0.1"/>
<path d="M1022.47 194.59C1022.26 194.141 1022.7 193.707 1023.15 193.909C1023.25 193.954 1023.32 194.029 1023.37 194.126C1023.57 194.575 1023.13 195.009 1022.69 194.807C1022.59 194.763 1022.51 194.688 1022.47 194.59Z" fill="white" fill-opacity="0.1"/>
<path d="M752.47 277.732C752.261 277.283 752.701 276.849 753.149 277.051C753.246 277.096 753.32 277.171 753.365 277.268C753.567 277.717 753.134 278.151 752.686 277.949C752.589 277.904 752.514 277.829 752.47 277.732Z" fill="white" fill-opacity="0.1"/>
<path d="M1079.05 155.73C1078.85 155.282 1079.28 154.849 1079.73 155.051C1079.83 155.096 1079.9 155.17 1079.95 155.267C1080.16 155.715 1079.72 156.155 1079.27 155.946C1079.17 155.902 1079.1 155.827 1079.05 155.73Z" fill="white" fill-opacity="0.1"/>
<path opacity="0.5" d="M883.562 100.338C883.771 99.8889 883.33 99.4549 882.883 99.6569C882.785 99.7018 882.711 99.7767 882.666 99.874C882.465 100.323 882.897 100.757 883.345 100.555C883.442 100.51 883.517 100.435 883.562 100.338Z" fill="white" fill-opacity="0.8"/>
<path d="M1017.48 237.701C1017.27 237.252 1017.71 236.818 1018.16 237.02C1018.26 237.065 1018.33 237.139 1018.38 237.237C1018.58 237.686 1018.14 238.12 1017.7 237.918C1017.6 237.873 1017.53 237.798 1017.48 237.701Z" fill="white" fill-opacity="0.8"/>
<path opacity="0.4" d="M1010.71 259.714C1010.5 259.265 1010.94 258.831 1011.39 259.033C1011.48 259.078 1011.56 259.153 1011.6 259.25C1011.8 259.699 1011.37 260.134 1010.92 259.931C1010.83 259.887 1010.75 259.812 1010.71 259.714Z" fill="white" fill-opacity="0.8"/>
<path d="M1072.2 202.732C1071.99 202.283 1072.43 201.849 1072.88 202.051C1072.98 202.096 1073.05 202.171 1073.1 202.268C1073.3 202.717 1072.87 203.151 1072.42 202.949C1072.32 202.904 1072.25 202.829 1072.2 202.732Z" fill="white" fill-opacity="0.1"/>
<path d="M887.834 145.379C887.632 144.93 888.066 144.496 888.515 144.698C888.612 144.743 888.687 144.818 888.732 144.915C888.934 145.364 888.5 145.799 888.051 145.596C887.953 145.552 887.879 145.477 887.834 145.379Z" fill="white" fill-opacity="0.1"/>
<path d="M1352.73 177.946C1352.28 178.155 1351.85 177.715 1352.05 177.267C1352.1 177.17 1352.17 177.096 1352.27 177.051C1352.72 176.849 1353.15 177.282 1352.95 177.73C1352.9 177.827 1352.83 177.902 1352.73 177.946Z" fill="white" fill-opacity="0.1"/>
<path d="M805.731 137.338C805.933 136.889 805.499 136.455 805.05 136.657C804.953 136.702 804.878 136.777 804.833 136.874C804.631 137.323 805.065 137.757 805.514 137.555C805.612 137.51 805.686 137.435 805.731 137.338Z" fill="white" fill-opacity="0.8"/>
<path d="M742.52 146.568C742.721 146.119 742.289 145.685 741.841 145.887C741.744 145.932 741.669 146.007 741.624 146.104C741.415 146.553 741.856 146.988 742.304 146.785C742.401 146.741 742.475 146.666 742.52 146.568Z" fill="white" fill-opacity="0.1"/>
<path d="M875.265 280.732C875.467 280.283 875.033 279.849 874.584 280.051C874.487 280.096 874.412 280.171 874.367 280.268C874.165 280.717 874.599 281.151 875.048 280.949C875.145 280.904 875.22 280.829 875.265 280.732Z" fill="white" fill-opacity="0.1"/>
<path opacity="0.6" d="M372.946 52.732C373.155 52.283 372.715 51.8489 372.267 52.051C372.17 52.0959 372.096 52.1707 372.051 52.268C371.849 52.717 372.282 53.1511 372.73 52.949C372.827 52.9041 372.902 52.8293 372.946 52.732Z" fill="white" fill-opacity="0.8"/>
<path d="M698.755 155.773C698.956 155.325 698.523 154.892 698.076 155.093C697.979 155.138 697.904 155.213 697.859 155.31C697.65 155.758 698.091 156.198 698.538 155.989C698.635 155.944 698.71 155.87 698.755 155.773Z" fill="white" fill-opacity="0.1"/>
<path d="M309.192 65.3599C309.401 64.9109 308.961 64.4768 308.513 64.6789C308.416 64.7238 308.341 64.7986 308.296 64.8959C308.095 65.345 308.528 65.779 308.976 65.577C309.073 65.5321 309.147 65.4572 309.192 65.3599Z" fill="white" fill-opacity="0.1"/>
<path opacity="0.4" d="M351.054 108.732C350.845 108.283 351.285 107.849 351.733 108.051C351.83 108.096 351.904 108.171 351.949 108.268C352.151 108.717 351.718 109.151 351.27 108.949C351.173 108.904 351.098 108.829 351.054 108.732Z" fill="white" fill-opacity="0.8"/>
<path d="M280.051 46.1622C279.849 45.7131 280.283 45.2791 280.732 45.4811C280.829 45.5261 280.904 45.6009 280.949 45.6982C281.151 46.1472 280.717 46.5813 280.268 46.3792C280.171 46.3343 280.096 46.2595 280.051 46.1622Z" fill="white" fill-opacity="0.1"/>
<path d="M398.861 85.2398C398.658 84.7908 399.093 84.3567 399.542 84.5588C399.639 84.6037 399.714 84.6785 399.759 84.7758C399.961 85.2248 399.527 85.6589 399.078 85.4568C398.98 85.4119 398.905 85.3371 398.861 85.2398Z" fill="white" fill-opacity="0.8"/>
<path d="M809.949 143.732C810.151 143.283 809.718 142.849 809.27 143.051C809.173 143.096 809.098 143.171 809.054 143.268C808.845 143.717 809.285 144.151 809.733 143.949C809.83 143.904 809.904 143.829 809.949 143.732Z" fill="white" fill-opacity="0.1"/>
<path opacity="0.5" d="M722.415 128.338C722.617 127.889 722.184 127.455 721.736 127.657C721.639 127.702 721.565 127.777 721.52 127.874C721.311 128.323 721.751 128.757 722.199 128.555C722.296 128.51 722.371 128.435 722.415 128.338Z" fill="white" fill-opacity="0.8"/>
<path d="M685.051 185.709C684.849 185.26 685.282 184.825 685.73 185.028C685.827 185.072 685.902 185.147 685.946 185.245C686.155 185.694 685.715 186.128 685.267 185.926C685.17 185.881 685.096 185.806 685.051 185.709Z" fill="white" fill-opacity="0.1"/>
<path d="M709.042 85.1348C708.84 84.6858 709.274 84.2517 709.723 84.4538C709.82 84.4987 709.895 84.5735 709.94 84.6708C710.142 85.1199 709.708 85.5539 709.259 85.3519C709.162 85.307 709.087 85.2321 709.042 85.1348Z" fill="white" fill-opacity="0.1"/>
<path d="M758.52 113.338C758.311 112.889 758.751 112.455 759.199 112.657C759.296 112.702 759.371 112.777 759.415 112.874C759.617 113.323 759.184 113.757 758.736 113.555C758.639 113.51 758.565 113.435 758.52 113.338Z" fill="white" fill-opacity="0.1"/>
<path d="M719.054 212.732C718.845 212.283 719.285 211.849 719.733 212.051C719.83 212.096 719.904 212.171 719.949 212.268C720.151 212.717 719.718 213.151 719.27 212.949C719.173 212.904 719.098 212.829 719.054 212.732Z" fill="white" fill-opacity="0.8"/>
<path d="M754.52 76.338C754.311 75.8889 754.751 75.4549 755.199 75.6569C755.296 75.7018 755.371 75.7767 755.415 75.874C755.617 76.323 755.184 76.757 754.736 76.555C754.639 76.5101 754.565 76.4352 754.52 76.338Z" fill="white" fill-opacity="0.1"/>
<path d="M686.051 54.732C685.849 54.283 686.283 53.8489 686.732 54.051C686.829 54.0959 686.904 54.1707 686.949 54.268C687.151 54.717 686.717 55.1511 686.268 54.949C686.171 54.9041 686.096 54.8293 686.051 54.732Z" fill="white" fill-opacity="0.1"/>
<path d="M170.051 178.732C169.849 178.283 170.283 177.849 170.732 178.051C170.829 178.096 170.904 178.171 170.949 178.268C171.151 178.717 170.717 179.151 170.268 178.949C170.171 178.904 170.096 178.829 170.051 178.732Z" fill="white" fill-opacity="0.1"/>
<path d="M412.838 128.713C412.636 128.266 413.069 127.833 413.517 128.034C413.614 128.079 413.689 128.154 413.734 128.251C413.943 128.699 413.502 129.139 413.054 128.93C412.957 128.885 412.883 128.81 412.838 128.713Z" fill="white" fill-opacity="0.1"/>
<path d="M305.48 110.16C305.278 109.711 305.712 109.277 306.161 109.479C306.258 109.524 306.333 109.599 306.378 109.696C306.58 110.145 306.146 110.579 305.697 110.377C305.599 110.332 305.525 110.258 305.48 110.16Z" fill="white" fill-opacity="0.1"/>
<path d="M305.054 149.732C304.845 149.283 305.285 148.849 305.733 149.051C305.83 149.096 305.904 149.171 305.949 149.268C306.151 149.717 305.718 150.151 305.27 149.949C305.173 149.904 305.098 149.829 305.054 149.732Z" fill="white" fill-opacity="0.1"/>
<path d="M471.054 156.732C470.845 156.283 471.285 155.849 471.733 156.051C471.83 156.096 471.904 156.171 471.949 156.268C472.151 156.717 471.718 157.151 471.27 156.949C471.173 156.904 471.098 156.829 471.054 156.732Z" fill="white" fill-opacity="0.1"/>
<path d="M214.051 245.732C213.849 245.283 214.283 244.849 214.732 245.051C214.829 245.096 214.904 245.171 214.949 245.268C215.151 245.717 214.717 246.151 214.268 245.949C214.171 245.904 214.096 245.829 214.051 245.732Z" fill="white" fill-opacity="0.1"/>
<path d="M714.633 207.826C714.842 207.377 714.401 206.943 713.953 207.145C713.856 207.19 713.782 207.264 713.737 207.362C713.535 207.811 713.968 208.245 714.416 208.043C714.513 207.998 714.588 207.923 714.633 207.826Z" fill="white" fill-opacity="0.1"/>
<path d="M779.582 196.3C779.791 195.852 779.35 195.411 778.903 195.62C778.806 195.665 778.731 195.74 778.686 195.837C778.485 196.285 778.917 196.718 779.365 196.516C779.462 196.471 779.537 196.397 779.582 196.3Z" fill="white" fill-opacity="0.1"/>
<path d="M657.946 151.732C658.155 151.283 657.715 150.849 657.267 151.051C657.17 151.096 657.096 151.171 657.051 151.268C656.849 151.717 657.282 152.151 657.73 151.949C657.827 151.904 657.902 151.829 657.946 151.732Z" fill="white" fill-opacity="0.1"/>
<path opacity="0.3" d="M780.949 114.732C781.151 114.283 780.718 113.849 780.27 114.051C780.173 114.096 780.098 114.171 780.054 114.268C779.845 114.717 780.285 115.151 780.733 114.949C780.83 114.904 780.904 114.829 780.949 114.732Z" fill="white" fill-opacity="0.8"/>
<path d="M559.949 239.732C560.151 239.283 559.717 238.849 559.268 239.051C559.171 239.096 559.096 239.171 559.051 239.268C558.849 239.717 559.283 240.151 559.732 239.949C559.829 239.904 559.904 239.829 559.949 239.732Z" fill="white" fill-opacity="0.1"/>
<path opacity="0.4" d="M612.268 243.949C612.717 244.151 613.151 243.718 612.949 243.27C612.904 243.173 612.829 243.098 612.732 243.054C612.283 242.845 611.849 243.285 612.051 243.733C612.096 243.83 612.171 243.904 612.268 243.949Z" fill="white" fill-opacity="0.8"/>
<path d="M772.398 185.522C772.599 185.073 772.167 184.638 771.719 184.841C771.622 184.885 771.547 184.96 771.502 185.058C771.293 185.507 771.734 185.941 772.181 185.739C772.278 185.694 772.353 185.619 772.398 185.522Z" fill="white" fill-opacity="0.1"/>
<path d="M537.108 143.883C537.317 143.434 536.877 143 536.429 143.202C536.332 143.247 536.257 143.322 536.212 143.419C536.011 143.868 536.444 144.302 536.892 144.1C536.989 144.055 537.063 143.98 537.108 143.883Z" fill="white" fill-opacity="0.8"/>
<path d="M541.309 191.896C541.511 191.447 541.077 191.012 540.628 191.215C540.531 191.259 540.456 191.334 540.411 191.432C540.209 191.881 540.643 192.315 541.092 192.113C541.19 192.068 541.264 191.993 541.309 191.896Z" fill="white" fill-opacity="0.1"/>
<path d="M824.581 183.627C824.783 183.178 824.349 182.744 823.9 182.946C823.803 182.991 823.728 183.066 823.683 183.163C823.481 183.612 823.915 184.046 824.364 183.844C824.461 183.799 824.536 183.724 824.581 183.627Z" fill="white" fill-opacity="0.1"/>
<path d="M754.051 264.732C753.849 264.283 754.283 263.849 754.732 264.051C754.829 264.096 754.904 264.171 754.949 264.268C755.151 264.717 754.717 265.151 754.268 264.949C754.171 264.904 754.096 264.829 754.051 264.732Z" fill="white" fill-opacity="0.1"/>
<path d="M596.268 207.054C596.717 206.845 597.151 207.285 596.949 207.733C596.904 207.83 596.829 207.904 596.732 207.949C596.283 208.151 595.849 207.718 596.051 207.27C596.096 207.173 596.171 207.098 596.268 207.054Z" fill="white" fill-opacity="0.1"/>
<path d="M662.051 181.732C661.849 181.283 662.282 180.849 662.73 181.051C662.827 181.096 662.902 181.171 662.946 181.268C663.155 181.717 662.715 182.151 662.267 181.949C662.17 181.904 662.096 181.829 662.051 181.732Z" fill="white" fill-opacity="0.1"/>
<path d="M635.117 31.732C635.326 31.283 634.886 30.8489 634.438 31.051C634.341 31.0959 634.267 31.1707 634.222 31.268C634.02 31.717 634.453 32.1511 634.901 31.949C634.998 31.9041 635.073 31.8293 635.117 31.732Z" fill="white" fill-opacity="0.8"/>
<path d="M615.192 61.3599C615.401 60.9109 614.961 60.4768 614.513 60.6789C614.416 60.7238 614.341 60.7986 614.296 60.8959C614.095 61.345 614.528 61.779 614.976 61.577C615.073 61.5321 615.147 61.4572 615.192 61.3599Z" fill="white" fill-opacity="0.1"/>
<path opacity="0.3" d="M587.054 69.732C586.845 69.283 587.285 68.8489 587.733 69.051C587.83 69.0959 587.904 69.1707 587.949 69.268C588.151 69.717 587.718 70.1511 587.27 69.949C587.173 69.9041 587.098 69.8293 587.054 69.732Z" fill="white" fill-opacity="0.8"/>
<path d="M586.051 42.1622C585.849 41.7131 586.283 41.2791 586.732 41.4811C586.829 41.5261 586.904 41.6009 586.949 41.6982C587.151 42.1472 586.717 42.5813 586.268 42.3792C586.171 42.3343 586.096 42.2595 586.051 42.1622Z" fill="white" fill-opacity="0.1"/>
<path d="M704.861 81.2398C704.658 80.7908 705.093 80.3567 705.542 80.5588C705.639 80.6037 705.714 80.6785 705.759 80.7758C705.961 81.2248 705.527 81.6589 705.078 81.4568C704.98 81.4119 704.905 81.3371 704.861 81.2398Z" fill="white" fill-opacity="0.8"/>
<path d="M718.838 124.713C718.636 124.266 719.069 123.833 719.517 124.034C719.614 124.079 719.689 124.154 719.734 124.251C719.943 124.699 719.502 125.139 719.054 124.93C718.957 124.885 718.883 124.81 718.838 124.713Z" fill="white" fill-opacity="0.1"/>
<path d="M611.48 106.16C611.278 105.711 611.712 105.277 612.161 105.479C612.258 105.524 612.333 105.599 612.378 105.696C612.58 106.145 612.146 106.579 611.697 106.377C611.599 106.332 611.525 106.258 611.48 106.16Z" fill="white" fill-opacity="0.1"/>
<path d="M611.054 145.732C610.845 145.283 611.285 144.849 611.733 145.051C611.83 145.096 611.904 145.171 611.949 145.268C612.151 145.717 611.718 146.151 611.27 145.949C611.173 145.904 611.098 145.829 611.054 145.732Z" fill="white" fill-opacity="0.1"/>
<path d="M777.054 152.732C776.845 152.283 777.285 151.849 777.733 152.051C777.83 152.096 777.904 152.171 777.949 152.268C778.151 152.717 777.718 153.151 777.27 152.949C777.173 152.904 777.098 152.829 777.054 152.732Z" fill="white" fill-opacity="0.1"/>
<path d="M520.051 241.732C519.849 241.283 520.283 240.849 520.732 241.051C520.829 241.096 520.904 241.171 520.949 241.268C521.151 241.717 520.717 242.151 520.268 241.949C520.171 241.904 520.096 241.829 520.051 241.732Z" fill="white" fill-opacity="0.1"/>
<path d="M161.77 233.17C161.569 232.721 162.001 232.287 162.449 232.489C162.546 232.534 162.621 232.609 162.666 232.706C162.875 233.155 162.434 233.589 161.987 233.387C161.889 233.342 161.815 233.267 161.77 233.17Z" fill="white" fill-opacity="0.1"/>
<defs>
<radialGradient id="paint0_radial_40_19" cx="0" cy="0" r="1" gradientUnits="userSpaceOnUse" gradientTransform="translate(720) rotate(90) scale(575.5 920.8)">
<stop stop-color="white"/>
<stop offset="1" stop-color="white" stop-opacity="0"/>
</radialGradient>
</defs>
</svg>
